<svg width="76" height="76" viewBox="0 0 76 76" fill="none" xmlns="http://www.w3.org/2000/svg">
<circle cx="38" cy="38" r="38" fill="#E4E4E4"/>
<path d="M47.9608 22.4268C46.9863 21.1274 45.9151 20.4687 44.777 20.4687C42.1621 20.4687 40.4787 23.9307 39.6056 26.3823C38.4857 22.8062 36.1486 17.7545 32.4127 18.0093C30.7097 18.1284 29.3276 19.3908 28.3372 20.7835C28.3312 20.7919 28.327 20.8012 28.3212 20.8097C24.8917 25.9055 23.7031 35.1004 23.7031 41.331C23.7031 47.3065 24.5374 51.4444 26.2537 53.9809C27.6966 56.1135 29.7953 57.1502 32.6697 57.1502C35.3206 57.1502 37.4258 56.2998 38.9627 54.1529C40.1566 56.7139 42.029 57.9999 44.777 57.9999C47.2099 57.9999 48.9811 56.9923 50.1921 54.9193C51.6085 52.4951 52.2969 48.5405 52.2969 42.8298C52.2969 36.9163 51.3661 26.9673 47.9608 22.4268ZM35.7405 21.1859C34.1661 23.5851 31.1685 23.5803 29.5976 21.1841C31.6007 18.6005 33.7536 18.6224 35.7405 21.1859ZM49.1128 54.2888C48.1183 55.9909 46.7811 56.75 44.777 56.75C42.0112 56.75 40.5815 55.2233 39.6719 52.565C38.2519 48.4189 38.374 41.2563 38.7695 36.8985C38.7944 36.6239 38.6375 36.3752 38.3983 36.2702C38.01 36.0994 37.5633 36.3582 37.5245 36.7856C37.114 41.3129 37.013 48.3857 38.4023 52.708C37.1689 54.9133 35.39 55.9003 32.6696 55.9003C30.208 55.9003 28.4981 55.0679 27.2888 53.2805C25.717 50.9576 24.9531 47.0488 24.9531 41.3311C24.9531 35.5485 25.8674 27.2631 28.8503 22.284C30.8907 24.8814 34.4422 24.8858 36.4866 22.2871C37.4301 23.8619 38.2703 25.9971 38.9253 28.5701C38.6605 29.5496 38.4287 30.5843 38.2412 31.5731C38.1769 31.9122 38.3996 32.2393 38.7387 32.3037C39.0783 32.3682 39.405 32.1453 39.4693 31.8062C39.6562 30.8206 39.8822 29.8147 40.1469 28.8429C41.3487 24.4322 43.0702 21.7188 44.777 21.7188C46.2789 21.7188 47.8788 23.9358 49.0567 27.6492C50.3401 31.6951 51.0469 37.0865 51.0469 42.83C51.0469 48.3129 50.4143 52.0612 49.1128 54.2888Z" fill="black"/>
<path d="M44.7771 30.073C39.8985 30.073 39.8803 50.7715 44.7771 50.7715C45.9585 50.7715 46.7344 49.5139 47.1772 48.4589C47.3108 48.1407 47.1611 47.7743 46.8428 47.6407C46.525 47.5074 46.1582 47.6568 46.0246 47.9751C45.546 49.1152 45.0664 49.5215 44.7771 49.5215C44.3767 49.5215 43.7391 48.7762 43.2168 47.1112C42.063 43.4322 42.0628 37.4126 43.2168 33.7331C43.7391 32.0681 44.3767 31.3229 44.7771 31.3229C45.1775 31.3229 45.8151 32.0681 46.3374 33.7331C47.312 36.8406 47.3996 41.2727 46.9114 44.524C46.8601 44.8654 47.0953 45.1836 47.4366 45.235C47.778 45.2862 48.0962 45.0511 48.1475 44.7097C49.067 38.5876 47.8704 30.073 44.7771 30.073Z" fill="black"/>
<path d="M44.7769 33.8498C44.4317 33.8498 44.1519 34.1297 44.1519 34.4748V45.8588C44.1519 46.204 44.4317 46.4838 44.7769 46.4838C45.122 46.4838 45.4019 46.204 45.4019 45.8588V34.4748C45.4019 34.1297 45.122 33.8498 44.7769 33.8498Z" fill="black"/>
<path d="M37.8671 33.9818C37.7119 34.3543 37.9468 34.7602 38.3218 34.8334C38.7217 34.91 39.0693 34.603 39.0693 34.2209C39.0693 33.5448 38.1309 33.3498 37.8671 33.9818Z" fill="black"/>
<path d="M29.7562 34.3162C29.942 34.0276 29.8602 33.6428 29.5723 33.4548C29.2834 33.2661 28.896 33.3474 28.7073 33.6364C28.6663 33.6993 27.7134 35.1932 28.7117 36.6805C29.1865 37.3879 28.8362 38.5548 28.662 38.9432C28.5187 39.2573 28.6573 39.628 28.9714 39.7712C29.2867 39.9148 29.6567 39.7747 29.7994 39.4617C29.8087 39.4412 30.0292 38.9529 30.1391 38.3076C30.2939 37.3977 30.1592 36.5942 29.7497 35.984C29.2203 35.1955 29.7288 34.36 29.7562 34.3162Z" fill="black"/>
<path d="M35.2165 31.4924C35.4021 31.2038 35.3204 30.8189 35.0325 30.631C34.7436 30.4423 34.3563 30.5235 34.1675 30.8126C34.1265 30.8755 33.1736 32.3694 34.1719 33.8569C34.6467 34.5642 34.2965 35.731 34.1222 36.1194C33.9322 36.5363 34.2407 37.0038 34.6904 37.0038C34.9278 37.0038 35.1547 36.8679 35.2595 36.6378C35.7227 35.6244 35.8804 34.1592 35.2097 33.1602C34.6803 32.3713 35.1894 31.5356 35.2165 31.4924Z" fill="black"/>
<path d="M29.7563 44.7472C29.942 44.4586 29.8602 44.0737 29.5724 43.8857C29.2834 43.6971 28.8962 43.7782 28.7073 44.0673C28.6663 44.1302 27.7134 45.624 28.7117 47.1114C29.1865 47.8188 28.8362 48.9856 28.662 49.374C28.472 49.7909 28.7804 50.2584 29.2302 50.2584C29.4676 50.2584 29.6945 50.1225 29.7993 49.8924C30.2678 48.8633 30.4152 47.4065 29.7495 46.4148C29.2205 45.6266 29.7285 44.7916 29.7563 44.7472Z" fill="black"/>
<path d="M34.8025 48.7119C34.9881 48.4233 34.9063 48.0385 34.6186 47.8506C34.3296 47.6618 33.9423 47.7432 33.7535 48.0322C33.7125 48.0951 32.7595 49.5889 33.7579 51.0764C34.2326 51.7837 33.8824 52.9506 33.7081 53.3389C33.5181 53.7557 33.8265 54.2233 34.2764 54.2233C34.5136 54.2233 34.7406 54.0874 34.8454 53.8574C35.314 52.8282 35.4614 51.3714 34.7957 50.3797C34.2658 49.5903 34.7763 48.7537 34.8025 48.7119Z" fill="black"/>
<path d="M34.1743 45.565C34.505 45.466 34.6929 45.1177 34.5939 44.7871C34.4358 44.2584 34.2006 43.7154 33.8949 43.173C33.0418 41.6597 33.5025 40.0549 33.5112 40.0253C33.6118 39.6962 33.4271 39.3475 33.0981 39.2458C32.7681 39.1434 32.4183 39.3285 32.3164 39.6582C32.2898 39.7442 31.6784 41.7864 32.806 43.7869C33.0662 44.2484 33.2649 44.7055 33.3965 45.1454C33.4962 45.479 33.8468 45.6633 34.1743 45.565Z" fill="black"/>
<path d="M32.4948 30.9752C32.3367 30.4465 32.1015 29.9035 31.7958 29.3612C30.9427 27.8478 31.4034 26.2431 31.4121 26.2135C31.5126 25.8843 31.328 25.5356 30.999 25.4339C30.669 25.3313 30.3192 25.5167 30.2172 25.8463C30.1907 25.9324 29.5793 27.9745 30.7068 29.975C30.9671 30.4366 31.1658 30.8936 31.2973 31.3335C31.3971 31.667 31.7477 31.8513 32.0752 31.7531C32.4059 31.6541 32.5938 31.3058 32.4948 30.9752Z" fill="black"/>
</svg>
