<svg width="76" height="76" viewBox="0 0 76 76" fill="none" xmlns="http://www.w3.org/2000/svg">
<circle cx="38" cy="38" r="38" fill="#E4E4E4"/>
<path d="M49.7099 24.875H49.8749C52.2868 24.875 54.2499 22.9125 54.2499 20.5V19.875H51.1249C49.7549 19.875 48.5312 20.5088 47.7287 21.4975C47.1137 19.8244 45.5087 18.625 43.6249 18.625H42.9999V20.5C42.9999 22.2838 44.0743 23.8187 45.6087 24.4994C45.1462 24.79 44.6074 25.1625 44.0293 25.6288C40.098 21.2219 33.3543 20.5313 33.0593 20.5031L32.3749 20.4375V21.125C32.3749 23.6206 31.8868 25.3269 31.4149 26.9763C30.9649 28.5475 30.4999 30.1731 30.4999 32.375C30.4999 32.5369 30.513 32.7 30.5268 32.8625C28.4318 33.8625 26.4449 35.2881 24.6162 37.1163C15.4999 46.2325 19.5343 55.9975 19.5762 56.0956L19.6749 56.325L19.9049 56.4231C19.9505 56.4431 22.1405 57.3481 25.398 57.3481C29.0568 57.3481 34.0612 56.2056 38.8837 51.3831C39.2068 51.06 39.5149 50.7294 39.8137 50.3962C42.6855 55.4738 47.0774 57.3037 47.143 57.33L47.3749 57.4231L47.6068 57.3306C47.7043 57.2913 57.3749 53.275 57.3749 40.5C57.3749 31.5019 52.5805 26.8538 49.7099 24.875ZM51.1249 21.125H52.9368C52.6468 22.5494 51.3843 23.625 49.8749 23.625H48.063C48.353 22.2006 49.6155 21.125 51.1249 21.125ZM44.2499 20.5V19.9381C45.6743 20.2281 46.7499 21.4906 46.7499 23V23.5619C45.3255 23.2719 44.2499 22.0094 44.2499 20.5ZM32.6168 27.3206C33.0668 25.7475 33.5305 24.1262 33.6124 21.8419C35.3693 22.1306 40.1574 23.1956 43.0793 26.4538C42.0155 27.4462 40.8999 28.74 39.9387 30.3831C39.7168 29.9781 39.4918 29.5787 39.2655 29.1894L39.8693 24.9644L38.6318 24.7875L38.2449 27.4963C36.7168 25.0475 35.3955 23.2775 35.3755 23.2513L34.3755 24.0013C34.3987 24.0325 36.3668 26.67 38.2605 29.9494C36.1668 29.0506 33.8568 28.6562 33.728 28.635L33.5224 29.8681C33.5599 29.8744 37.1193 30.4844 39.1774 31.84C38.2305 33.8737 37.5443 36.3506 37.403 39.3462C34.0824 37.7906 31.7499 34.9631 31.7499 32.375C31.7499 30.3481 32.1712 28.8775 32.6168 27.3206ZM37.9999 50.5C30.2737 58.2256 22.1224 55.8825 20.6355 55.3631C20.1118 53.8775 17.7524 45.7475 25.4999 38C27.1418 36.3587 28.9112 35.0619 30.7699 34.1312C31.5587 36.7812 34.0443 39.2975 37.3799 40.6987C37.4074 44.1469 38.1399 46.9506 39.1955 49.2037C38.8193 49.6412 38.4224 50.0769 37.9999 50.5ZM47.378 56.0662C45.9768 55.395 38.6249 51.355 38.6249 40.5C38.6249 29.545 45.9224 25.6075 47.3718 24.9338C48.773 25.605 56.1249 29.645 56.1249 40.5C56.1249 51.455 48.8274 55.3925 47.378 56.0662Z" fill="black"/>
<path d="M47.7331 26.2381L47.0168 27.2625C47.0762 27.3038 53 31.5181 53 37.375H54.25C54.25 30.8744 47.9993 26.4244 47.7331 26.2381Z" fill="black"/>
<path d="M41.125 41.125H39.875C39.875 50.1425 46.7819 54.0131 47.0756 54.1737L47.6737 53.0763C47.6087 53.0406 41.125 49.4081 41.125 41.125Z" fill="black"/>
<path d="M44.0163 31.6125L43.2344 30.6369C43.0975 30.7469 39.875 33.3706 39.875 37.375H41.125C41.125 33.9819 43.9875 31.6356 44.0163 31.6125Z" fill="black"/>
<path d="M50.0562 40.9406C50.073 40.9575 51.7499 42.6906 51.7499 45.5H52.9999C52.9999 42.1544 51.0262 40.1419 50.9418 40.0581L50.0562 40.9406Z" fill="black"/>
<path d="M44.875 44.875C44.875 42.6075 46.0094 40.8631 46.0206 40.8456L45.5 40.5L44.98 40.1531C44.9244 40.2363 43.625 42.2163 43.625 44.875H44.875Z" fill="black"/>
<path d="M47.3749 34.875H48.6249C48.6249 31.9581 46.4168 31.1887 46.3224 31.1569L45.9268 32.3425C45.9418 32.3481 47.3749 32.8487 47.3749 34.875Z" fill="black"/>
<path d="M47.5574 50.0587L48.4417 50.9419C48.5261 50.8581 50.4999 48.8594 50.4999 46.75H49.2499C49.2499 48.3388 47.5742 50.0419 47.5574 50.0587Z" fill="black"/>
<path d="M32.0217 51.9312L32.6174 53.03C32.9949 52.8256 33.3699 52.6037 33.733 52.3706L33.058 51.3181C32.7205 51.535 32.3717 51.7412 32.0217 51.9312Z" fill="black"/>
<path d="M36.2324 48.7319C36.1199 48.8444 36.0074 48.9544 35.8943 49.0631L36.7599 49.9644C36.8787 49.85 36.998 49.7337 37.1155 49.6156C37.3043 49.4275 37.4862 49.2394 37.6618 49.0506L36.7474 48.1981C36.5812 48.3762 36.4105 48.5544 36.2324 48.7319Z" fill="black"/>
<path d="M34.0488 50.6312L34.797 51.6331C35.1357 51.38 35.472 51.1119 35.8045 50.8281L34.9938 49.8769C34.682 50.1425 34.367 50.3944 34.0488 50.6312Z" fill="black"/>
<path d="M27.3462 39.6888L26.4574 38.8106L26.3837 38.8844C22.0699 43.1981 21.1362 47.5794 21.113 50.4956L22.363 50.5056C22.3843 47.8231 23.253 43.7831 27.2924 39.7438L27.3462 39.6888Z" fill="black"/>
<path d="M32.0742 39.1137L31.4261 38.045C30.298 38.73 29.1967 39.6069 28.1523 40.6512L29.0361 41.535C30.0092 40.5612 31.0317 39.7469 32.0742 39.1137Z" fill="black"/>
<path d="M24.3385 51.0719L24.2141 52.3156C24.6097 52.355 25.0141 52.375 25.4147 52.375C27.0229 52.375 28.6035 52.0631 30.111 51.4481L29.6385 50.2906C27.9447 50.9819 26.1204 51.2494 24.3385 51.0719Z" fill="black"/>
<path d="M34.875 41.75H33.625C33.625 43.32 32.5806 46.125 30.5 46.125V47.375C33.3169 47.375 34.875 44.0487 34.875 41.75Z" fill="black"/>
<path d="M24.25 48.625H25.5C25.5 46.475 27.7281 44.7662 27.7513 44.7494L27 43.75C26.8881 43.8344 24.25 45.8444 24.25 48.625Z" fill="black"/>
</svg>
