<svg width="76" height="76" viewBox="0 0 76 76" fill="none" xmlns="http://www.w3.org/2000/svg">
<circle cx="38" cy="38" r="38" fill="#E4E4E4"/>
<path d="M56.7287 34.7138C56.7075 34.6344 56.6709 34.56 56.6209 34.4948C56.5709 34.4296 56.5086 34.3749 56.4375 34.3338L48.575 29.7944C48.4313 29.7115 48.2607 29.6891 48.1005 29.732C47.9403 29.775 47.8038 29.8798 47.7209 30.0234C47.638 30.1671 47.6156 30.3378 47.6585 30.4979C47.7015 30.6581 47.8063 30.7946 47.95 30.8775L55.2712 35.1044L54.6462 36.1863L39.4912 27.4363L40.1162 26.3544L45.785 29.625C45.9286 29.7079 46.0993 29.7303 46.2594 29.6874C46.4196 29.6444 46.5561 29.5396 46.639 29.396C46.7219 29.2523 46.7443 29.0816 46.7014 28.9215C46.6584 28.7613 46.5536 28.6248 46.41 28.5419L40.6412 25.2113C40.6888 24.9634 40.6854 24.7084 40.6313 24.4619C40.5772 24.2154 40.4734 23.9824 40.3263 23.7773C40.1793 23.5722 39.992 23.3991 39.7759 23.2687C39.5598 23.1383 39.3194 23.0533 39.0693 23.0188C39.1534 22.7101 39.1564 22.385 39.0779 22.0749C38.9995 21.7647 38.8423 21.4801 38.6216 21.2485C38.4009 21.017 38.1242 20.8463 37.8182 20.7531C37.5122 20.6598 37.1873 20.6471 36.875 20.7163C36.736 20.2748 36.4371 19.9011 36.0368 19.6688C35.6802 19.4649 35.2666 19.3838 34.8594 19.4379C34.4522 19.492 34.0741 19.6783 33.7831 19.9681C33.5938 19.7276 33.3484 19.537 33.0685 19.4131C32.7885 19.2893 32.4825 19.2358 32.1771 19.2574C31.8718 19.2791 31.5763 19.3752 31.3167 19.5373C31.057 19.6994 30.841 19.9227 30.6875 20.1875L29.4375 22.3525C29.3142 22.5659 29.2342 22.8014 29.2021 23.0457C29.1699 23.29 29.1862 23.5383 29.2501 23.7763C29.3139 24.0142 29.4241 24.2373 29.5742 24.4327C29.7243 24.6281 29.9115 24.792 30.125 24.915C30.3341 25.0303 30.5635 25.1039 30.8006 25.1319C30.724 25.409 30.7123 25.7 30.7665 25.9824C30.8207 26.2647 30.9392 26.5308 31.1129 26.7599C31.2866 26.989 31.5108 27.1749 31.7681 27.3033C32.0253 27.4316 32.3087 27.499 32.5962 27.5C32.7279 27.4963 32.8588 27.4789 32.9868 27.4481C33.0825 27.7542 33.2558 28.0303 33.4898 28.2496C33.7239 28.4688 34.0107 28.6238 34.3224 28.6993C34.6341 28.7748 34.96 28.7683 35.2684 28.6805C35.5769 28.5927 35.8573 28.4265 36.0825 28.1981C36.2287 28.387 36.4102 28.5458 36.6168 28.6656C36.951 28.8596 37.3375 28.944 37.722 28.9071C38.1066 28.8703 38.47 28.7139 38.7612 28.46L54.5625 37.5819C54.6336 37.6229 54.7121 37.6495 54.7935 37.6602C54.8749 37.6708 54.9576 37.6654 55.0368 37.6441C55.1161 37.6228 55.1904 37.586 55.2555 37.536C55.3206 37.486 55.3752 37.4236 55.4162 37.3525L56.6662 35.1875C56.749 35.0441 56.7714 34.8737 56.7287 34.7138ZM30.4556 23.4519C30.4341 23.3726 30.4286 23.2899 30.4393 23.2084C30.45 23.127 30.4768 23.0485 30.5181 22.9775L31.7681 20.8125C31.8516 20.6701 31.9879 20.5665 32.1475 20.5244C32.3071 20.4822 32.4768 20.5048 32.6198 20.5873C32.7627 20.6699 32.8672 20.8056 32.9104 20.9648C32.9537 21.1241 32.9322 21.294 32.8506 21.4375L32.2256 22.52L31.6006 23.6025C31.5177 23.7452 31.3818 23.8494 31.2224 23.8922C31.0631 23.9351 30.8932 23.9132 30.75 23.8313C30.6781 23.7909 30.615 23.7365 30.5644 23.6713C30.5139 23.6062 30.4769 23.5316 30.4556 23.4519ZM34.9262 27.4769C34.807 27.5087 34.681 27.5046 34.5642 27.465C34.4473 27.4254 34.3448 27.3521 34.2695 27.2543C34.1943 27.1565 34.1497 27.0386 34.1413 26.9155C34.1329 26.7924 34.1611 26.6696 34.2225 26.5625L34.875 25.43C34.9565 25.2865 34.978 25.1166 34.9348 24.9573C34.8916 24.7981 34.7871 24.6624 34.6441 24.5798C34.5012 24.4973 34.3314 24.4747 34.1719 24.5169C34.0123 24.559 33.8759 24.6626 33.7925 24.805L33.1406 25.9375C33.0571 26.0799 32.9207 26.1835 32.7612 26.2257C32.6016 26.2678 32.4318 26.2452 32.2889 26.1627C32.146 26.0802 32.0415 25.9445 31.9982 25.7852C31.955 25.6259 31.9765 25.456 32.0581 25.3125L32.6831 24.23L33.9331 22.0656L34.5581 20.9844C34.5988 20.9127 34.6533 20.8498 34.7185 20.7993C34.7836 20.7488 34.8581 20.7117 34.9377 20.6901C35.0172 20.6685 35.1002 20.6629 35.182 20.6735C35.2637 20.6841 35.3425 20.7108 35.4139 20.752C35.4853 20.7932 35.5478 20.8482 35.5979 20.9137C35.648 20.9791 35.6846 21.0539 35.7056 21.1335C35.7267 21.2132 35.7318 21.2963 35.7206 21.378C35.7095 21.4596 35.6823 21.5383 35.6406 21.6094L35.0437 22.6394C35.002 22.7105 34.9748 22.7891 34.9636 22.8708C34.9525 22.9525 34.9576 23.0355 34.9786 23.1152C34.9997 23.1949 35.0363 23.2696 35.0864 23.3351C35.1365 23.4006 35.199 23.4555 35.2704 23.4967C35.3418 23.538 35.4206 23.5646 35.5023 23.5753C35.5841 23.5859 35.6671 23.5802 35.7466 23.5586C35.8262 23.537 35.9007 23.4999 35.9658 23.4494C36.031 23.3989 36.0855 23.336 36.1262 23.2644L36.7231 22.2306C36.7627 22.157 36.8168 22.092 36.882 22.0396C36.9472 21.9872 37.0223 21.9484 37.1028 21.9256C37.1832 21.9027 37.2675 21.8963 37.3505 21.9066C37.4335 21.9169 37.5136 21.9438 37.5861 21.9856C37.6585 22.0275 37.7218 22.0835 37.7723 22.1502C37.8227 22.217 37.8592 22.2932 37.8796 22.3743C37.9 22.4555 37.9039 22.5399 37.8911 22.6226C37.8783 22.7052 37.849 22.7845 37.805 22.8556L35.305 27.1863C35.2641 27.2573 35.2096 27.3195 35.1446 27.3694C35.0796 27.4193 35.0054 27.4558 34.9262 27.4769ZM37.2387 27.5813C37.0952 27.4984 36.9904 27.3619 36.9475 27.2018C36.9046 27.0417 36.9271 26.8711 37.01 26.7275L38.26 24.5631C38.3007 24.4915 38.3552 24.4286 38.4204 24.3781C38.4855 24.3276 38.56 24.2905 38.6395 24.2689C38.7191 24.2473 38.8021 24.2416 38.8838 24.2523C38.9656 24.2629 39.0444 24.2896 39.1158 24.3308C39.1872 24.372 39.2497 24.4269 39.2998 24.4924C39.3498 24.5579 39.3865 24.6326 39.4075 24.7123C39.4286 24.792 39.4337 24.8751 39.4225 24.9567C39.4114 25.0384 39.3841 25.117 39.3425 25.1881L38.0925 27.3531C38.0095 27.4957 37.8735 27.5997 37.7142 27.6425C37.5548 27.6852 37.385 27.6632 37.2418 27.5813H37.2387Z" fill="black"/>
<path d="M25.4481 50.5L26.35 52.0625C26.4049 52.1576 26.4839 52.2366 26.579 52.2914C26.6741 52.3463 26.782 52.3751 26.8919 52.375H28.335L29.0562 53.625C29.1111 53.7201 29.1901 53.7991 29.2853 53.8539C29.3804 53.9088 29.4883 53.9376 29.5981 53.9375H31.4019C31.5117 53.9376 31.6196 53.9088 31.7147 53.8539C31.8098 53.7991 31.8888 53.7201 31.9437 53.625L32.665 52.375H34.1081C34.2179 52.3751 34.3258 52.3463 34.421 52.2914C34.5161 52.2366 34.5951 52.1576 34.65 52.0625L35.5519 50.5C35.6067 50.405 35.6356 50.2972 35.6356 50.1875C35.6356 50.0778 35.6067 49.97 35.5519 49.875L34.65 48.3125C34.5671 48.1689 34.4306 48.0641 34.2704 48.0211C34.1102 47.9782 33.9396 48.0006 33.7959 48.0835C33.6523 48.1663 33.5475 48.3029 33.5045 48.4631C33.4616 48.6232 33.484 48.7939 33.5669 48.9375L34.2887 50.1875L33.75 51.125H32.665L32.125 50.1875L32.8469 48.9375C32.8739 48.8912 32.8949 48.8417 32.9094 48.79V48.7863C32.9128 48.7673 32.9153 48.7481 32.9169 48.7288C32.92 48.7107 32.9225 48.6932 32.9244 48.675C32.9269 48.6417 32.9269 48.6083 32.9244 48.575C32.9244 48.5569 32.92 48.5394 32.9169 48.5213C32.9153 48.502 32.9128 48.4828 32.9094 48.4638V48.46C32.8946 48.4085 32.8736 48.359 32.8469 48.3125L32.125 47.0625L32.6662 46.125H33.75L34.4719 47.375C34.5553 47.5174 34.6917 47.621 34.8513 47.6632C35.0108 47.7054 35.1806 47.6827 35.3235 47.6002C35.4665 47.5177 35.571 47.382 35.6142 47.2227C35.6574 47.0634 35.6359 46.8935 35.5544 46.75L34.65 45.1875C34.5951 45.0924 34.5161 45.0135 34.421 44.9586C34.3258 44.9038 34.2179 44.8749 34.1081 44.875H32.665L31.9437 43.625C31.8888 43.5299 31.8098 43.451 31.7147 43.3961C31.6196 43.3413 31.5117 43.3124 31.4019 43.3125H29.5981C29.4883 43.3124 29.3804 43.3413 29.2853 43.3961C29.1901 43.451 29.1111 43.5299 29.0562 43.625L28.335 44.875H26.8919C26.782 44.8749 26.6741 44.9038 26.579 44.9586C26.4839 45.0135 26.4049 45.0924 26.35 45.1875L25.4481 46.75C25.3933 46.845 25.3644 46.9528 25.3644 47.0625C25.3644 47.1722 25.3933 47.28 25.4481 47.375L26.17 48.625L25.4481 49.875C25.3933 49.97 25.3644 50.0778 25.3644 50.1875C25.3644 50.2972 25.3933 50.405 25.4481 50.5ZM26.7106 50.1875L27.25 49.25H28.3325L28.8737 50.1875L28.335 51.125H27.25L26.7106 50.1875ZM31.0412 47.6875L31.5825 48.625L31.0412 49.5625H29.9587L29.4175 48.625L29.9587 47.6875H31.0412ZM31.0412 52.6875H29.9587L29.4175 51.75L29.9587 50.8125H31.0412L31.5825 51.75L31.0412 52.6875ZM29.9587 44.5625H31.0412L31.5825 45.5L31.0412 46.4375H29.9587L29.4175 45.5L29.9587 44.5625ZM27.25 46.125H28.3325L28.8737 47.0625L28.335 48H27.25L26.7081 47.0625L27.25 46.125Z" fill="black"/>
<path d="M54.7463 45.5756C54.9129 45.0952 54.9118 44.5725 54.7433 44.0927C54.5748 43.6129 54.2487 43.2044 53.8182 42.9337C53.3877 42.663 52.8782 42.5461 52.3728 42.602C51.8674 42.658 51.3958 42.8835 51.035 43.2419L49.9225 44.355C49.8096 44.1774 49.6785 44.0122 49.5312 43.8619C49.0075 43.3422 48.3152 43.0268 47.5794 42.9725C47.5185 42.3399 47.6624 41.7046 47.99 41.16L48.2994 40.645C48.3434 40.5746 48.373 40.4962 48.3864 40.4142C48.3998 40.3323 48.3967 40.2485 48.3773 40.1678C48.358 40.087 48.3227 40.011 48.2737 39.944C48.2246 39.877 48.1627 39.8205 48.0915 39.7777C48.0203 39.735 47.9414 39.7068 47.8592 39.6949C47.777 39.683 47.6933 39.6876 47.6129 39.7084C47.5325 39.7292 47.4571 39.7658 47.3911 39.8161C47.325 39.8664 47.2696 39.9293 47.2281 40.0012L46.9188 40.5169C46.4488 41.2976 46.2455 42.2099 46.3394 43.1163C45.8762 43.2608 45.4549 43.5156 45.1118 43.8587C44.7687 44.2018 44.5139 44.623 44.3694 45.0863C43.4628 44.9924 42.5503 45.1958 41.7694 45.6656L41.75 45.68V41.125C41.7484 40.0161 41.4196 38.9324 40.8048 38.0096C40.19 37.0868 39.3165 36.366 38.2938 35.9375C38.5344 35.5917 38.65 35.1742 38.6216 34.7538C38.5932 34.3335 38.4225 33.9353 38.1375 33.625C38.3819 33.3571 38.543 33.0238 38.601 32.6658C38.6591 32.3079 38.6117 31.9407 38.4645 31.6093C38.3174 31.2778 38.0768 30.9964 37.7724 30.7994C37.4679 30.6024 37.1126 30.4984 36.75 30.5C36.5842 30.5 36.4253 30.5658 36.3081 30.6831C36.1908 30.8003 36.125 30.9592 36.125 31.125C36.125 31.2908 36.1908 31.4497 36.3081 31.5669C36.4253 31.6842 36.5842 31.75 36.75 31.75C36.9158 31.75 37.0747 31.8158 37.1919 31.9331C37.3092 32.0503 37.375 32.2092 37.375 32.375C37.375 32.5408 37.3092 32.6997 37.1919 32.8169C37.0747 32.9342 36.9158 33 36.75 33H34.875V31.75C34.875 31.087 34.6116 30.4511 34.1428 29.9822C33.6739 29.5134 33.038 29.25 32.375 29.25H28.625C28.1881 29.2514 27.7593 29.3676 27.3815 29.587C27.0037 29.8064 26.6902 30.1212 26.4725 30.5H24.25C23.8874 30.4984 23.5321 30.6024 23.2276 30.7994C22.9232 30.9964 22.6826 31.2778 22.5355 31.6093C22.3883 31.9407 22.3409 32.3079 22.399 32.6658C22.457 33.0238 22.6181 33.3571 22.8625 33.625C22.5775 33.9353 22.4068 34.3335 22.3784 34.7538C22.35 35.1742 22.4656 35.5917 22.7063 35.9375C21.6835 36.366 20.81 37.0868 20.1952 38.0096C19.5804 38.9324 19.2516 40.0161 19.25 41.125V45.5C19.25 45.6658 19.3158 45.8247 19.4331 45.9419C19.5503 46.0592 19.7092 46.125 19.875 46.125C20.0408 46.125 20.1997 46.0592 20.3169 45.9419C20.4342 45.8247 20.5 45.6658 20.5 45.5V41.125C20.5013 39.9651 20.9627 38.8531 21.7829 38.0329C22.6031 37.2127 23.7151 36.7513 24.875 36.75H26.125V39.8081C26.1254 40.0443 26.1677 40.2786 26.25 40.5H22.375C22.2092 40.5 22.0503 40.5658 21.9331 40.6831C21.8158 40.8003 21.75 40.9592 21.75 41.125C21.75 41.2908 21.8158 41.4497 21.9331 41.5669C22.0503 41.6842 22.2092 41.75 22.375 41.75H40.5V53.625C40.5 54.1223 40.3025 54.5992 39.9508 54.9508C39.5992 55.3025 39.1223 55.5 38.625 55.5H22.375C21.8777 55.5 21.4008 55.3025 21.0492 54.9508C20.6975 54.5992 20.5 54.1223 20.5 53.625V48C20.5 47.8342 20.4342 47.6753 20.3169 47.5581C20.1997 47.4408 20.0408 47.375 19.875 47.375C19.7092 47.375 19.5503 47.4408 19.4331 47.5581C19.3158 47.6753 19.25 47.8342 19.25 48V53.625C19.251 54.4535 19.5806 55.2478 20.1664 55.8336C20.7522 56.4194 21.5465 56.749 22.375 56.75H38.625C39.4535 56.749 40.2478 56.4194 40.8336 55.8336C41.4194 55.2478 41.749 54.4535 41.75 53.625V47.1125C41.8018 47.0985 41.8514 47.0775 41.8975 47.05L42.4131 46.7412C42.9574 46.413 43.593 46.2688 44.2256 46.33C44.2799 47.0657 44.5951 47.7579 45.1144 48.2819C45.2645 48.4291 45.4295 48.5602 45.6069 48.6731L44.4944 49.7856C44.4303 49.842 44.3785 49.9109 44.3421 49.9881C44.3056 50.0652 44.2854 50.1491 44.2826 50.2343C44.2798 50.3196 44.2945 50.4046 44.3258 50.484C44.3571 50.5634 44.4043 50.6355 44.4646 50.696C44.5248 50.7564 44.5968 50.8039 44.676 50.8355C44.7553 50.867 44.8402 50.882 44.9255 50.8795C45.0108 50.877 45.0947 50.8571 45.172 50.821C45.2493 50.7848 45.3184 50.7332 45.375 50.6694L47.3875 48.6575L47.075 51.485C47.0535 51.6714 46.98 51.848 46.8629 51.9947C46.7458 52.1413 46.5897 52.252 46.4127 52.3141C46.2356 52.3762 46.0446 52.3873 45.8616 52.346C45.6785 52.3047 45.5108 52.2127 45.3775 52.0806C45.2596 51.9668 45.1017 51.9038 44.9379 51.9052C44.774 51.9066 44.6172 51.9724 44.5014 52.0882C44.3855 52.2041 44.3198 52.3609 44.3183 52.5247C44.3169 52.6886 44.3799 52.8465 44.4937 52.9644C44.7007 53.1732 44.9469 53.3391 45.2181 53.4525C45.4894 53.5658 45.7804 53.6245 46.0744 53.625C46.3298 53.6247 46.5834 53.5812 46.8244 53.4963C47.2253 53.3577 47.5784 53.1077 47.8423 52.7756C48.1062 52.4435 48.2699 52.0431 48.3144 51.6213L48.3281 51.4963L49.53 52.6981C50.1169 53.2799 50.9104 53.6056 51.7369 53.6038C52.5633 53.6019 53.3553 53.2728 53.9397 52.6885C54.5241 52.1041 54.8532 51.312 54.855 50.4856C54.8568 49.6592 54.5312 48.8657 53.9494 48.2787L52.75 47.0794L52.875 47.0656C53.2962 47.0206 53.6959 46.8566 54.0273 46.5927C54.3587 46.3289 54.6081 45.9761 54.7463 45.5756ZM36.75 34.25C36.9158 34.25 37.0747 34.3158 37.1919 34.4331C37.3092 34.5503 37.375 34.7092 37.375 34.875C37.375 35.0408 37.3092 35.1997 37.1919 35.3169C37.0747 35.4342 36.9158 35.5 36.75 35.5H34.75C34.8323 35.2786 34.8746 35.0443 34.875 34.8081V34.25H36.75ZM27.375 31.75C27.375 31.4185 27.5067 31.1005 27.7411 30.8661C27.9755 30.6317 28.2935 30.5 28.625 30.5H32.375C32.7065 30.5 33.0245 30.6317 33.2589 30.8661C33.4933 31.1005 33.625 31.4185 33.625 31.75V34.8081C33.6306 34.9638 33.5824 35.1167 33.4887 35.241C33.3949 35.3654 33.2612 35.4538 33.11 35.4913C33.02 35.5073 32.9275 35.5035 32.8391 35.4799C32.7507 35.4564 32.6685 35.4137 32.5984 35.3549C32.5283 35.2962 32.472 35.2227 32.4334 35.1398C32.3948 35.0569 32.3749 34.9665 32.375 34.875V33C32.375 32.8342 32.3092 32.6753 32.1919 32.5581C32.0747 32.4408 31.9158 32.375 31.75 32.375C31.5842 32.375 31.4253 32.4408 31.3081 32.5581C31.1908 32.6753 31.125 32.8342 31.125 33V37.3081C31.1306 37.4638 31.0824 37.6167 30.9887 37.741C30.8949 37.8654 30.7612 37.9538 30.61 37.9913C30.52 38.0073 30.4275 38.0035 30.3391 37.9799C30.2507 37.9564 30.1685 37.9137 30.0984 37.8549C30.0283 37.7962 29.972 37.7227 29.9334 37.6398C29.8948 37.5569 29.8749 37.4665 29.875 37.375V35.5C29.875 35.3342 29.8092 35.1753 29.6919 35.0581C29.5747 34.9408 29.4158 34.875 29.25 34.875C29.0842 34.875 28.9253 34.9408 28.8081 35.0581C28.6908 35.1753 28.625 35.3342 28.625 35.5V39.875C28.625 39.9656 28.6052 40.0552 28.5671 40.1374C28.529 40.2196 28.4735 40.2926 28.4044 40.3513C28.3341 40.4106 28.2517 40.4538 28.163 40.478C28.0742 40.5022 27.9813 40.5067 27.8906 40.4913C27.7393 40.454 27.6053 40.3657 27.5114 40.2413C27.4175 40.1169 27.3693 39.9639 27.375 39.8081V31.75ZM24.25 31.75H26.125V33H24.25C24.0842 33 23.9253 32.9342 23.8081 32.8169C23.6908 32.6997 23.625 32.5408 23.625 32.375C23.625 32.2092 23.6908 32.0503 23.8081 31.9331C23.9253 31.8158 24.0842 31.75 24.25 31.75ZM24.25 35.5C24.0842 35.5 23.9253 35.4342 23.8081 35.3169C23.6908 35.1997 23.625 35.0408 23.625 34.875C23.625 34.7092 23.6908 34.5503 23.8081 34.4331C23.9253 34.3158 24.0842 34.25 24.25 34.25H26.125V35.5H24.25ZM29.875 39.875V39.1425C30.1755 39.2489 30.4981 39.277 30.8125 39.2244C31.2564 39.1391 31.6561 38.9003 31.9418 38.55C32.2274 38.1997 32.3808 37.7601 32.375 37.3081V36.75H36.125C37.1762 36.7512 38.1917 37.1309 38.9859 37.8195C39.7801 38.5081 40.2998 39.4596 40.45 40.5H29.7569C29.8317 40.2999 29.8716 40.0886 29.875 39.875ZM51.9194 44.125C52.1068 43.9384 52.3605 43.8336 52.625 43.8336C52.8895 43.8336 53.1432 43.9384 53.3306 44.125C53.4629 44.2582 53.5551 44.426 53.5965 44.6092C53.6378 44.7923 53.6268 44.9834 53.5647 45.1606C53.5025 45.3378 53.3918 45.4939 53.245 45.6111C53.0983 45.7282 52.9215 45.8017 52.735 45.8231L49.9075 46.1356L51.9194 44.125ZM48.5819 49.2306L48.7694 47.5206L50.4788 47.3331L48.5819 49.2306ZM46.5294 47.75C46.3319 47.6661 46.1511 47.5473 45.9956 47.3994C45.798 47.1995 45.6484 46.9574 45.5581 46.6912C45.6984 46.6917 45.8347 46.6445 45.9447 46.5575C46.0547 46.4704 46.1319 46.3486 46.1637 46.212C46.1956 46.0754 46.1802 45.932 46.12 45.8053C46.0599 45.6786 45.9585 45.576 45.8325 45.5144C45.7475 45.4719 45.66 45.4406 45.5731 45.4044C45.665 45.1577 45.8089 44.9336 45.995 44.7475C46.1811 44.5614 46.4052 44.4175 46.6519 44.3256C46.6881 44.4119 46.7194 44.5 46.7619 44.585C46.836 44.7331 46.966 44.8458 47.1231 44.8982C47.2803 44.9505 47.4518 44.9384 47.6 44.8644C47.7023 44.8126 47.7882 44.7334 47.848 44.6356C47.9078 44.5378 47.9393 44.4253 47.9388 44.3106C48.2047 44.4013 48.4468 44.5508 48.6469 44.7481C48.7949 44.9035 48.9137 45.0843 48.9975 45.2819L47.7631 46.5169L46.5294 47.75ZM49.0919 50.4925L51.7431 47.8412L52.625 48.7231L49.9731 51.375L49.0919 50.4925ZM53.0694 51.8188C52.7911 52.0833 52.44 52.2585 52.0613 52.3218C51.6825 52.385 51.2935 52.3335 50.9444 52.1738L53.4275 49.6875C53.5943 50.0363 53.6491 50.4281 53.5846 50.8093C53.52 51.1905 53.3392 51.5424 53.0669 51.8169L53.0694 51.8188Z" fill="black"/>
</svg>
