<svg width="76" height="76" viewBox="0 0 76 76" fill="none" xmlns="http://www.w3.org/2000/svg">
<circle cx="38" cy="38" r="38" fill="#E4E4E4"/>
<g clip-path="url(#clip0)">
<path d="M57.9962 39.46C57.9962 39.315 57.9386 39.1759 57.836 39.0733C57.7335 38.9707 57.5944 38.9131 57.4493 38.9131H52.055C48.9551 38.9166 45.9831 40.1496 43.7912 42.3415C41.5992 44.5335 40.3663 47.5054 40.3628 50.6053V52.6053L38.5434 54.0803V40.7112L40.6122 39.0344H43.0228C46.1224 39.0308 49.094 37.798 51.2859 35.6064C53.4778 33.4148 54.711 30.4433 54.715 27.3437C54.715 27.1987 54.6573 27.0596 54.5548 26.957C54.4522 26.8545 54.3131 26.7969 54.1681 26.7969H51.5625C48.5096 26.801 45.5791 27.9978 43.3962 30.1321C41.2134 32.2664 39.9509 35.1692 39.8781 38.2212L38.5431 39.3031V31.4144C39.6772 30.6969 40.6069 29.6989 41.2422 28.5168C41.8775 27.3347 42.1968 26.0086 42.1694 24.667C42.142 23.3253 41.7686 22.0134 41.0856 20.8582C40.4025 19.7031 39.4328 18.7439 38.2703 18.0734C38.187 18.0253 38.0925 17.9999 37.9964 17.9999C37.9002 17.9999 37.8057 18.0253 37.7225 18.0734C36.56 18.7439 35.5902 19.7031 34.9071 20.8582C34.224 22.0133 33.8507 23.3252 33.8232 24.6669C33.7957 26.0086 34.1151 27.3346 34.7503 28.5167C35.3856 29.6988 36.3153 30.6969 37.4493 31.4144V39.3034L36.1137 38.2209C36.0826 36.6839 35.7468 35.1684 35.1258 33.7621C34.5048 32.3558 33.6109 31.0868 32.4959 30.0284C32.1729 29.6866 31.8135 29.3811 31.424 29.1175C30.2148 28.2135 28.8414 27.5531 27.3803 27.1731C25.9953 26.8125 24.6056 26.7953 23.1875 26.7953H21.8243C21.6793 26.7953 21.5402 26.8529 21.4376 26.9555C21.3351 27.058 21.2775 27.1971 21.2775 27.3422C21.2809 30.4419 22.5138 33.4137 24.7055 35.6056C26.8973 37.7976 29.869 39.0306 32.9687 39.0344H35.3797L37.4484 40.7112V54.0809L35.6287 52.6059V50.6059C35.6254 47.5061 34.3926 44.5341 32.2009 42.3421C30.0091 40.15 27.0373 38.9168 23.9375 38.9131H18.5431C18.3981 38.9131 18.259 38.9707 18.1564 39.0733C18.0538 39.1759 17.9962 39.315 17.9962 39.46V41.7212C17.9996 44.821 19.2324 47.7929 21.4242 49.9849C23.6159 52.1769 26.5877 53.41 29.6875 53.4137H34.889L37.4493 55.4891V57.4531C37.4493 57.5982 37.507 57.7373 37.6095 57.8398C37.7121 57.9424 37.8512 58 37.9962 58C38.1413 58 38.2804 57.9424 38.3829 57.8398C38.4855 57.7373 38.5431 57.5982 38.5431 57.4531V55.4891L41.1031 53.4137C42.8185 53.4137 44.534 53.4137 46.2497 53.4137C50.0518 53.4078 53.8187 51.5341 55.9422 48.3391C57.2678 46.3857 57.9826 44.0822 57.9959 41.7216L57.9962 39.46ZM51.5625 27.8891H53.6065C53.4632 30.6004 52.286 33.1537 50.3172 35.0234C48.3485 36.8932 45.7379 37.9372 43.0228 37.9406H41.9603L44 36.2878L46.4409 36.5066C46.4575 36.5066 46.474 36.5087 46.4906 36.5087C46.6314 36.5086 46.7667 36.4542 46.8684 36.3569C46.97 36.2595 47.0303 36.1267 47.0365 35.9861C47.0427 35.8455 46.9945 35.7079 46.9019 35.6019C46.8092 35.4959 46.6792 35.4298 46.539 35.4172L45.2197 35.2984L46.4231 34.3231C46.4293 34.3231 46.435 34.3259 46.4412 34.3266L48.9928 34.5559C49.0093 34.5559 49.0259 34.5581 49.0425 34.5581C49.1801 34.5535 49.3109 34.4971 49.4087 34.4003C49.5066 34.3034 49.5643 34.1732 49.5704 34.0357C49.5765 33.8981 49.5304 33.7634 49.4415 33.6583C49.3526 33.5532 49.2272 33.4855 49.0906 33.4687L47.6406 33.3384L49 32.2359C49.1066 32.1429 49.173 32.0121 49.1852 31.8711C49.1974 31.7302 49.1545 31.5899 49.0655 31.4799C48.9765 31.3699 48.8483 31.2987 48.7079 31.2812C48.5674 31.2638 48.4257 31.3014 48.3125 31.3862L46.8253 32.5916L46.6878 31.0622C46.6748 30.9177 46.605 30.7843 46.4937 30.6914C46.3823 30.5984 46.2386 30.5534 46.0942 30.5664C45.9497 30.5794 45.8163 30.6492 45.7234 30.7605C45.6304 30.8718 45.5854 31.0155 45.5984 31.16L45.8018 33.4212L44.2812 34.6519L44.1337 33.0128C44.1207 32.8683 44.0509 32.735 43.9396 32.642C43.8283 32.549 43.6846 32.5041 43.5401 32.517C43.3957 32.53 43.2623 32.5998 43.1693 32.7111C43.0763 32.8225 43.0314 32.9662 43.0443 33.1106L43.2575 35.4816L41.035 37.2831C41.3335 34.6992 42.5707 32.315 44.5114 30.5831C46.4522 28.8513 48.9614 27.8926 51.5625 27.8891ZM32.4522 32.5172C32.3079 32.505 32.1646 32.5502 32.0534 32.643C31.9423 32.7358 31.8722 32.8687 31.8584 33.0128L31.7109 34.6516L30.1931 33.4212L30.3965 31.16C30.403 31.0885 30.3952 31.0164 30.3738 30.9478C30.3523 30.8793 30.3176 30.8156 30.2716 30.7605C30.2255 30.7054 30.1691 30.6599 30.1055 30.6266C30.0418 30.5933 29.9723 30.5728 29.9007 30.5664C29.8292 30.56 29.7571 30.5677 29.6886 30.5891C29.62 30.6106 29.5564 30.6453 29.5013 30.6914C29.39 30.7843 29.3201 30.9177 29.3072 31.0622L29.1697 32.5916L27.6825 31.3862C27.5692 31.3014 27.4275 31.2638 27.2871 31.2812C27.1466 31.2987 27.0184 31.3699 26.9294 31.4799C26.8404 31.5899 26.7975 31.7302 26.8097 31.8711C26.822 32.0121 26.8884 32.1429 26.995 32.2359L28.3534 33.3369L26.9034 33.4672C26.7632 33.4798 26.6332 33.5459 26.5406 33.6519C26.4479 33.7579 26.3997 33.8955 26.4059 34.0361C26.4122 34.1767 26.4724 34.3095 26.5741 34.4069C26.6758 34.5042 26.8111 34.5586 26.9518 34.5587C26.9681 34.5587 26.9847 34.5587 27.0015 34.5566L29.5531 34.3272C29.5593 34.3272 29.5653 34.3244 29.5712 34.3237L30.7747 35.2991L29.455 35.4178C29.3148 35.4304 29.1848 35.4965 29.0921 35.6025C28.9995 35.7085 28.9513 35.8461 28.9575 35.9867C28.9637 36.1274 29.024 36.2602 29.1256 36.3575C29.2273 36.4549 29.3626 36.5093 29.5034 36.5094C29.5197 36.5094 29.5362 36.5094 29.5531 36.5072L31.9943 36.2884L34.0312 37.9406H32.9687C30.2536 37.9372 27.6431 36.8932 25.6744 35.0234C23.7057 33.1537 22.5286 30.6004 22.3853 27.8891C24.1353 27.8891 25.8653 27.8347 27.5631 28.3609C30.1151 29.1588 32.2753 30.8843 33.6175 33.1969C34.3397 34.453 34.7961 35.8442 34.9581 37.2841L32.7343 35.4816L32.9475 33.1109C32.9604 32.9665 32.9155 32.8229 32.8226 32.7116C32.7298 32.6003 32.5965 32.5303 32.4522 32.5172ZM34.5362 51.7187L31.5512 49.2991L31.8131 46.3884C31.8261 46.244 31.7811 46.1003 31.6881 45.989C31.5952 45.8776 31.4618 45.8078 31.3173 45.7948C31.1729 45.7819 31.0292 45.8268 30.9178 45.9198C30.8065 46.0128 30.7367 46.1462 30.7237 46.2906L30.5275 48.4687L28.494 46.8219L28.744 44.0431C28.7505 43.9716 28.7427 43.8995 28.7213 43.831C28.6998 43.7624 28.6651 43.6988 28.6191 43.6436C28.573 43.5885 28.5166 43.543 28.453 43.5097C28.3893 43.4764 28.3198 43.4559 28.2482 43.4495C28.1767 43.4431 28.1046 43.4508 28.0361 43.4723C27.9675 43.4937 27.9039 43.5284 27.8488 43.5745C27.7936 43.6205 27.7481 43.677 27.7148 43.7406C27.6815 43.8042 27.6611 43.8738 27.6547 43.9453L27.4703 45.9925L25.5197 44.4112C25.4064 44.3264 25.2647 44.2888 25.1242 44.3062C24.9838 44.3237 24.8556 44.3949 24.7666 44.5049C24.6776 44.6149 24.6347 44.7552 24.6469 44.8961C24.6591 45.0371 24.7255 45.1679 24.8322 45.2609L26.6787 46.7575L24.6618 46.9391C24.5216 46.9516 24.3917 47.0178 24.299 47.1238C24.2064 47.2297 24.1581 47.3674 24.1644 47.508C24.1706 47.6486 24.2308 47.7814 24.3325 47.8788C24.4342 47.9761 24.5695 48.0305 24.7103 48.0306C24.7265 48.0306 24.7431 48.0306 24.76 48.0284L27.829 47.7522C27.8501 47.7495 27.8709 47.7455 27.8915 47.7403L29.5912 49.1178L27.7315 49.2853C27.5913 49.2979 27.4614 49.364 27.3687 49.47C27.276 49.576 27.2278 49.7136 27.2341 49.8542C27.2403 49.9949 27.3005 50.1277 27.4022 50.225C27.5039 50.3224 27.6392 50.3768 27.78 50.3769C27.7962 50.3769 27.8128 50.3769 27.8297 50.3747L30.8109 50.1062L33.5418 52.32H29.6875C26.8777 52.3165 24.1841 51.1988 22.1974 49.2119C20.2107 47.225 19.0932 44.5313 19.09 41.7216V40.0069H23.9375C26.7474 40.0101 29.4412 41.1277 31.4281 43.1146C33.415 45.1015 34.5327 47.7954 34.5359 50.6053L34.5362 51.7187ZM37.9962 23.0259C37.8512 23.0259 37.7121 23.0835 37.6095 23.1861C37.507 23.2887 37.4493 23.4278 37.4493 23.5728V25.2062L36.6897 24.5416C36.5796 24.4534 36.4397 24.4111 36.2992 24.4237C36.1588 24.4362 36.0286 24.5024 35.9358 24.6087C35.8431 24.7149 35.7949 24.8529 35.8015 24.9937C35.808 25.1346 35.8687 25.2675 35.9709 25.3647L37.4509 26.6597V30.0737C36.6161 29.4111 35.9513 28.5589 35.512 27.5878C35.0726 26.6168 34.8712 25.5549 34.9245 24.4904C34.9778 23.4259 35.2843 22.3895 35.8185 21.4672C36.3528 20.5449 37.0993 19.7634 37.9962 19.1875C38.8931 19.7632 39.6398 20.5447 40.1741 21.4668C40.7084 22.389 41.0151 23.4254 41.0686 24.4899C41.122 25.5543 40.9208 26.6162 40.4816 27.5873C40.0423 28.5584 39.3778 29.4107 38.5431 30.0734V26.6594L40.0228 25.3644C40.125 25.2672 40.1857 25.1343 40.1922 24.9934C40.1988 24.8525 40.1506 24.7146 40.0579 24.6084C39.9651 24.5021 39.8349 24.4359 39.6944 24.4233C39.554 24.4108 39.4141 24.4531 39.304 24.5412L38.5431 25.2062V23.5728C38.5431 23.4278 38.4855 23.2887 38.3829 23.1861C38.2804 23.0835 38.1413 23.0259 37.9962 23.0259ZM56.9025 41.7212C56.908 43.9383 56.213 46.1004 54.9168 47.8991L54.9147 47.9028C53.9329 49.2695 52.6399 50.3829 51.1427 51.1509C49.6454 51.919 47.9868 52.3196 46.304 52.3197H42.4528L45.1837 50.1059L48.165 50.3744C48.1815 50.3744 48.1981 50.3766 48.2147 50.3766C48.3554 50.3764 48.4907 50.3221 48.5924 50.2247C48.6941 50.1274 48.7543 49.9946 48.7606 49.8539C48.7668 49.7133 48.7186 49.5757 48.6259 49.4697C48.5333 49.3637 48.4033 49.2976 48.2631 49.285L46.4034 49.1175L48.1031 47.74C48.1237 47.7452 48.1445 47.7491 48.1656 47.7519L51.2347 48.0281C51.2512 48.0281 51.2678 48.0303 51.2843 48.0303C51.4251 48.0302 51.5604 47.9758 51.6621 47.8785C51.7638 47.7811 51.824 47.6483 51.8303 47.5077C51.8365 47.367 51.7883 47.2294 51.6956 47.1234C51.6029 47.0175 51.473 46.9513 51.3328 46.9387L49.3159 46.7572L51.1625 45.2606C51.2691 45.1676 51.3355 45.0368 51.3477 44.8958C51.3599 44.7548 51.317 44.6146 51.228 44.5046C51.139 44.3946 51.0108 44.3234 50.8704 44.3059C50.7299 44.2884 50.5882 44.3261 50.475 44.4109L48.5243 45.9919L48.34 43.9447C48.327 43.8002 48.2572 43.6668 48.1458 43.5739C48.0345 43.4809 47.8908 43.4359 47.7464 43.4489C47.6019 43.4619 47.4685 43.5317 47.3755 43.643C47.2826 43.7543 47.2376 43.898 47.2506 44.0425L47.5006 46.8212L45.465 48.4687L45.269 46.2897C45.2626 46.2181 45.2422 46.1486 45.2089 46.085C45.1755 46.0213 45.13 45.9649 45.0749 45.9188C45.0198 45.8728 44.9561 45.8381 44.8876 45.8166C44.8191 45.7952 44.747 45.7875 44.6754 45.7939C44.6039 45.8003 44.5343 45.8208 44.4707 45.8541C44.4071 45.8874 44.3506 45.9329 44.3046 45.988C44.2586 46.0431 44.2238 46.1068 44.2024 46.1753C44.181 46.2439 44.1732 46.316 44.1797 46.3875L44.4415 49.2981L41.4565 51.7187V50.6047C41.4598 47.7948 42.5774 45.1009 44.5643 43.114C46.5512 41.1271 49.2451 40.0095 52.055 40.0062H56.9028L56.9025 41.7212Z" fill="black"/>
</g>
<defs>
<clipPath id="clip0">
<rect width="40" height="40" fill="white" transform="translate(18 18)"/>
</clipPath>
</defs>
</svg>
