<svg width="76" height="76" viewBox="0 0 76 76" fill="none" xmlns="http://www.w3.org/2000/svg">
<circle cx="38" cy="38" r="38" fill="#E4E4E4"/>
<g clip-path="url(#clip0)">
<path d="M57.9151 40.821C57.6411 39.8424 56.6547 38.9436 55.1035 39.1231V28.6783C55.935 28.644 56.6014 27.9587 56.6014 27.119V24.0729C56.6014 23.2112 55.9004 22.5103 55.0388 22.5103H52.4688L51.0632 20.0757C50.7753 19.5771 50.3091 19.22 49.7504 19.0703C49.1915 18.9205 48.6094 18.9967 48.1108 19.2846L42.5238 22.5103H40.7724L35.1853 19.2846C34.6867 18.9967 34.1045 18.9205 33.5458 19.0703C32.9871 19.22 32.5209 19.5771 32.2331 20.0757L30.8274 22.5103H28.2575C27.3959 22.5103 26.6949 23.2112 26.6949 24.0729V27.119C26.6949 27.9587 27.3612 28.644 28.1928 28.6783V39.3621C25.7236 39.9473 23.7681 41.3692 22.2424 43.694C21.8088 43.357 21.2823 43.1644 20.7228 43.1448C20.0203 43.1202 19.3499 43.3709 18.8357 43.8506C17.7742 44.8406 17.7161 46.5096 18.7062 47.571L26.725 56.1688C27.2426 56.7239 27.946 57.0045 28.6509 57.0045C29.2942 57.0045 29.939 56.7707 30.4455 56.2984C30.9596 55.8189 31.2563 55.1678 31.2808 54.4651C31.3052 53.7624 31.0546 53.0922 30.575 52.578L30.2826 52.2645L32.2324 49.28L36.7441 49.4872C40.0802 49.6405 41.1447 49.4774 44.3394 48.3237C46.8119 47.4308 49.9012 46.2131 52.3835 45.2345C54.1604 44.534 55.6951 43.929 56.2714 43.7349C56.2739 43.7341 56.2763 43.7333 56.2789 43.7324C57.7452 43.2221 58.212 41.8816 57.9151 40.821ZM55.0388 27.119H45.2074V24.0729H55.0388V27.119ZM39.6514 28.6815H43.6447V34.2433L41.878 33.6993C41.7281 33.6532 41.568 33.6532 41.4182 33.6993L39.6514 34.2433V28.6815ZM39.6514 27.119V24.0729H43.6447V27.119H39.6514ZM48.8921 20.6378C49.0293 20.5587 49.1905 20.538 49.346 20.5796C49.5015 20.6213 49.6308 20.7198 49.71 20.8569L50.6645 22.5102H45.649L48.8921 20.6378ZM33.5864 20.857C33.6656 20.7198 33.7948 20.6213 33.9504 20.5797C34.1058 20.5381 34.267 20.5588 34.4042 20.6379L37.6474 22.5103H32.6319L33.5864 20.857ZM28.2575 24.0729H38.0889V27.119H37.3512C36.9197 27.119 36.5699 27.4687 36.5699 27.9003C36.5699 28.3318 36.9197 28.6815 37.3512 28.6815H38.0889V35.3013C38.0889 35.5493 38.2066 35.7825 38.4061 35.9298C38.6056 36.077 38.8631 36.121 39.1001 36.048L41.6481 35.2635L44.1961 36.048C44.2715 36.0712 44.349 36.0825 44.4259 36.0825C44.591 36.0825 44.7541 36.0301 44.8901 35.9297C45.0896 35.7824 45.2073 35.5491 45.2073 35.3012V28.6815H53.5408V39.4613L47.5607 40.8519C47.3126 39.7215 46.2513 38.9222 45.0667 39.0273C44.6505 39.0643 43.2428 39.2145 41.7525 39.3736C40.3355 39.5249 38.8704 39.6813 38.4683 39.717C37.6278 39.7918 36.5276 39.6325 35.2539 39.4481C33.5561 39.2022 31.6753 38.9301 29.7554 39.1086V28.6815H30.3196C30.7511 28.6815 31.1009 28.3318 31.1009 27.9003C31.1009 27.4687 30.7511 27.119 30.3196 27.119H28.2575V24.0729H28.2575ZM29.3797 55.1558C28.9483 55.5582 28.27 55.5344 27.8678 55.1031L19.8489 46.5053C19.4466 46.0739 19.4702 45.3957 19.9015 44.9933C20.1105 44.7984 20.3836 44.6962 20.6684 44.7065C20.9539 44.7164 21.2186 44.837 21.4134 45.046L29.4324 53.6438C29.6273 53.8527 29.7291 54.125 29.7192 54.4106C29.7093 54.6963 29.5887 54.9609 29.3797 55.1558ZM55.7684 42.2556C55.152 42.4636 53.6769 43.0451 51.8105 43.7809C49.3376 44.7558 46.2599 45.969 43.8088 46.8541C40.8012 47.9401 39.9518 48.0703 36.8159 47.9264L31.8584 47.6987C31.5829 47.6863 31.3197 47.8203 31.1685 48.0518L29.185 51.0877L23.3628 44.8452C26.5106 39.7617 31.2232 40.4434 35.03 40.9946C36.3436 41.1849 37.5843 41.3646 38.6069 41.2736C39.0227 41.2366 40.4293 41.0864 41.9185 40.9275C43.3365 40.7762 44.8028 40.6197 45.2052 40.5839C45.6347 40.5466 46.0112 40.8601 46.0494 41.2841C46.0614 41.4168 46.0931 41.7692 45.1135 42.1778C43.0229 43.0495 40.8022 43.7805 39.021 44.1833C38.6001 44.2784 38.3361 44.6968 38.4313 45.1176C38.5265 45.5385 38.9445 45.8027 39.3657 45.7073C41.2307 45.2856 43.5449 44.5247 45.7149 43.6199C46.4685 43.3057 46.9398 42.9254 47.2244 42.5346L55.0714 40.7098C55.8997 40.5342 56.3062 40.8695 56.4106 41.2424C56.5105 41.5999 56.3506 42.0515 55.7684 42.2556Z" fill="black"/>
<path d="M33.8357 28.6816C34.2672 28.6816 34.617 28.3318 34.617 27.9003C34.617 27.4688 34.2672 27.119 33.8357 27.119H33.8352C33.4037 27.119 33.0542 27.4688 33.0542 27.9003C33.0542 28.3318 33.4042 28.6816 33.8357 28.6816Z" fill="black"/>
</g>
<defs>
<clipPath id="clip0">
<rect width="40" height="40" fill="white" transform="translate(18 18)"/>
</clipPath>
</defs>
</svg>
