<svg width="76" height="76" viewBox="0 0 76 76" fill="none" xmlns="http://www.w3.org/2000/svg">
<circle cx="38" cy="38" r="38" fill="#E4E4E4"/>
<g clip-path="url(#clip0)">
<path d="M35.454 39.5187C35.3475 39.3222 35.162 39.2255 34.9919 39.2771C32.8249 39.9411 30.7912 37.795 31.3115 35.3995C31.3673 35.1428 31.271 34.8594 31.0878 34.7403C29.5182 33.7202 29.1572 31.3934 30.3295 29.8634C30.4899 29.6542 30.4989 29.3239 30.3506 29.0952C29.3128 27.4942 29.7919 25.1961 31.4688 24.3011C31.7732 24.1383 32.152 24.2537 32.3146 24.5582C32.4772 24.8627 32.362 25.2415 32.0574 25.404C31.0555 25.9387 30.7456 27.4063 31.3996 28.4152C31.8353 29.0874 31.8033 29.9955 31.3219 30.6239C30.5945 31.5731 30.8069 33.0669 31.769 33.6921C32.3941 34.0984 32.7013 34.8912 32.5331 35.6649C32.2131 37.1397 33.3815 38.4628 34.6259 38.0818C35.369 37.8547 36.1612 38.2004 36.5529 38.9229C37.228 40.1679 38.7736 40.1655 39.4475 38.9229C39.8393 38.2004 40.6318 37.8545 41.3744 38.0818C42.6237 38.4639 43.7863 37.134 43.4673 35.6649C43.2992 34.8912 43.6063 34.0984 44.2315 33.6921C45.1934 33.067 45.4066 31.5739 44.6786 30.6239C44.1972 29.9955 44.1652 29.0874 44.6009 28.4152C45.2532 27.4088 44.9477 25.9401 43.9431 25.404C43.3153 25.069 42.9481 24.3541 43.0077 23.5829C43.1037 22.3424 42.2077 21.3376 41.1923 21.4133C40.4886 21.4663 39.8338 21.0454 39.5268 20.3406C39.2324 19.6649 38.6476 19.2451 38.0003 19.2451C37.3531 19.2451 36.7681 19.6649 36.4739 20.3406C36.1669 21.0454 35.5126 21.466 34.8082 21.4133C34.2737 21.3733 33.7905 21.6215 33.4521 22.0399C33.2348 22.3082 32.8413 22.3496 32.573 22.1325C32.3046 21.9154 32.2632 21.5217 32.4803 21.2533C33.0957 20.4929 33.9808 20.0974 34.9021 20.1667C35.0687 20.1795 35.2361 20.0517 35.3278 19.8414C36.3964 17.3878 39.603 17.3845 40.673 19.8414C40.7646 20.0516 40.9325 20.1802 41.0985 20.1667C42.9373 20.0296 44.4066 21.7122 44.2542 23.6794C44.2335 23.9471 44.3477 24.2028 44.5317 24.3011C46.2095 25.1965 46.6873 27.495 45.6501 29.0952C45.5018 29.3239 45.5108 29.6542 45.6711 29.8634C46.1175 30.446 46.3633 31.1868 46.3633 31.9491C46.3633 33.0893 45.8075 34.1587 44.9129 34.7403C44.7296 34.8594 44.6333 35.1428 44.6891 35.3994C45.2088 37.7912 43.1798 39.9415 41.0086 39.2771C40.8389 39.2254 40.6532 39.3222 40.5467 39.5187C39.4021 41.6292 36.5998 41.6321 35.454 39.5187Z" fill="black"/>
<path d="M28.4348 57.2286C28.2662 57.0813 28.0581 57.0549 27.9171 57.1628C26.1126 58.5436 23.462 57.2295 23.1143 54.8107C23.0769 54.5505 22.8875 54.3183 22.6739 54.2704C21.6327 54.0369 20.7385 53.2284 20.3405 52.16C20.0743 51.4454 20.046 50.6654 20.261 49.964C20.3382 49.7121 20.2312 49.3993 20.0122 49.2365C18.4766 48.0947 18.1305 45.7733 19.3867 44.3538C19.5247 44.1978 19.5424 43.9186 19.4295 43.6749C18.5861 41.8542 19.4193 39.7843 21.1612 39.2831C21.3217 39.2369 21.4334 39.0593 21.4459 38.8306C21.5909 36.1553 24.5975 35.041 26.4555 36.9684C26.6149 37.1336 26.8162 37.1952 26.9683 37.1253C28.6245 36.3636 30.6024 37.4016 31.1518 39.3181C31.226 39.5765 31.4224 39.7765 31.6296 39.8045C33.5176 40.06 34.7639 42.0501 34.3511 43.908C34.292 44.174 34.4159 44.4805 34.6393 44.6208C35.261 45.0113 35.7499 45.6198 36.0161 46.3344C36.4143 47.4031 36.2667 48.5991 35.6311 49.4557C35.501 49.6311 35.5099 49.93 35.6517 50.1511C36.9768 52.2162 35.8178 54.9348 33.5558 55.0677C33.3787 55.0781 33.2388 55.2335 33.2075 55.4545C32.8724 57.8284 30.2492 58.812 28.4348 57.2286ZM29.257 56.2869C30.3231 57.2174 31.772 56.6801 31.9698 55.2796C32.0848 54.4655 32.7069 53.8651 33.4826 53.8196C34.7892 53.7425 35.4101 52.0887 34.5996 50.8261C34.1719 50.1594 34.1829 49.3093 34.6271 48.7107C35.3067 47.7948 34.9935 46.3195 33.9744 45.6794C33.304 45.2584 32.957 44.4183 33.1307 43.6367C33.393 42.4564 32.5794 41.1944 31.4622 41.0433C30.7571 40.948 30.1636 40.4061 29.9503 39.6628C29.626 38.5322 28.467 37.8131 27.4906 38.261C26.8489 38.5563 26.0893 38.3896 25.5555 37.8361C24.4507 36.69 22.7803 37.3083 22.6942 38.8984C22.6525 39.6662 22.1865 40.2888 21.507 40.4845C20.491 40.7771 20.0605 42.0626 20.5639 43.1494C20.8891 43.8514 20.7944 44.6493 20.3229 45.1824C19.5716 46.0312 19.7918 47.5149 20.7581 48.2334C21.401 48.7115 21.6881 49.5738 21.4563 50.3304C21.1078 51.4676 21.8205 52.798 22.9472 53.0505C23.6747 53.2135 24.2391 53.8495 24.3517 54.633C24.5663 56.1249 26.1232 56.9615 27.1575 56.1699C27.7754 55.6973 28.6387 55.7472 29.257 56.2869Z" fill="black"/>
<path d="M42.7925 55.4544C42.7614 55.2335 42.6214 55.0781 42.4443 55.0677C40.1778 54.9345 39.0258 52.2128 40.3483 50.151C40.4901 49.9299 40.499 49.631 40.3689 49.4557C39.261 47.9625 39.7192 45.6518 41.3606 44.6208C41.5841 44.4805 41.708 44.1739 41.6489 43.9079C41.2358 42.0481 42.4843 40.0596 44.3703 39.8045C44.5775 39.7765 44.774 39.5764 44.8482 39.3179C44.9434 38.9861 45.2896 38.794 45.6214 38.8896C45.9533 38.9848 46.1451 39.331 46.0498 39.6628C45.8365 40.4061 45.243 40.948 44.5378 41.0433C43.4211 41.1943 42.6069 42.4557 42.8693 43.6366C43.043 44.4184 42.6961 45.2584 42.0256 45.6795C41.0067 46.3194 40.6935 47.7948 41.373 48.7107C41.8172 49.3093 41.8282 50.1594 41.4006 50.826C40.5858 52.0959 41.2174 53.7429 42.5176 53.8196C43.2932 53.8652 43.9153 54.4655 44.0304 55.2796C44.2284 56.6822 45.6783 57.2162 46.7432 56.2868C47.3625 55.7462 48.2258 55.6981 48.8426 56.1698C49.8829 56.966 51.4352 56.1163 51.6485 54.6329C51.7611 53.8495 52.3254 53.2136 53.0529 53.0505C54.1759 52.799 54.8936 51.4716 54.5439 50.3304C54.3121 49.5738 54.5992 48.7115 55.2421 48.2334C56.2076 47.5156 56.4291 46.0318 55.6774 45.1824C55.2057 44.6494 55.1111 43.8515 55.4364 43.1494C55.9359 42.0699 55.5137 40.7785 54.4932 40.4845C53.8137 40.2888 53.3477 39.6662 53.306 38.8984C53.2199 37.3088 51.5498 36.6897 50.4447 37.8361C49.911 38.3896 49.1514 38.5564 48.5094 38.261C48.299 38.1644 48.0628 38.1145 47.8152 38.1279C47.4703 38.1463 47.1768 37.8801 47.1593 37.5353C47.1418 37.1904 47.4071 36.8968 47.7519 36.8793C48.1953 36.8565 48.6323 36.9414 49.0316 37.1251C49.1839 37.1951 49.3851 37.1336 49.5446 36.9682C50.3938 36.0873 51.63 35.7734 52.6937 36.1687C53.7577 36.5641 54.488 37.6089 54.5543 38.8305C54.5667 39.0591 54.6784 39.2367 54.839 39.283C56.5882 39.7863 57.4103 41.8613 56.5707 43.6747C56.4578 43.9184 56.4754 44.1976 56.6135 44.3537C57.8703 45.7738 57.5224 48.0956 55.988 49.2364C55.769 49.3993 55.6621 49.712 55.7393 49.9639C56.3018 51.7996 55.1593 53.8596 53.3264 54.2703C53.1127 54.3181 52.9233 54.5505 52.886 54.8106C52.5377 57.2331 49.8843 58.5413 48.083 57.1625C47.9421 57.055 47.7341 57.0814 47.5654 57.2285C45.7561 58.8078 43.1287 57.8345 42.7925 55.4544Z" fill="black"/>
<path d="M34.8501 27.928C34.6281 27.6636 34.6625 27.2693 34.9269 27.0474C35.3464 26.6952 35.4291 26.2113 35.0153 25.7218C34.1835 24.738 34.6317 23.5476 34.9848 23.0557C35.1861 22.7752 35.5766 22.711 35.8571 22.9124C36.1363 23.1128 36.2011 23.5007 36.0031 23.7809C35.9554 23.8502 35.5701 24.4417 35.97 24.9147C36.8525 25.9583 36.6537 27.2302 35.7307 28.0048C35.4675 28.2259 35.073 28.1936 34.8501 27.928Z" fill="black"/>
<path d="M40.0102 31.0115C39.7883 30.7471 39.8228 30.3528 40.0872 30.1308C40.2955 29.956 40.4261 29.7258 40.4454 29.499C40.4647 29.2734 40.3739 29.0401 40.1755 28.8053C39.3436 27.8215 39.7918 26.6311 40.145 26.1392C40.3463 25.8587 40.7367 25.7945 41.0173 25.9959C41.2965 26.1963 41.3613 26.5843 41.1633 26.8645C41.1156 26.9338 40.7302 27.5252 41.1301 27.9982C41.6543 28.6182 41.7245 29.2145 41.6911 29.6056C41.6436 30.161 41.3519 30.7014 40.8909 31.0885C40.6248 31.3118 40.2307 31.2743 40.0102 31.0115Z" fill="black"/>
<path d="M23.6889 46.7039C23.3949 46.523 23.3031 46.1379 23.4841 45.8439C23.7709 45.3778 23.6962 44.8925 23.1489 44.5583C22.049 43.8869 22.0984 42.6162 22.2782 42.038C22.3808 41.7083 22.7311 41.5243 23.0608 41.6267C23.3889 41.7288 23.5729 42.0764 23.4733 42.4048C23.4499 42.4856 23.2712 43.1683 23.8002 43.4912C24.4936 43.9144 24.7484 44.4584 24.8401 44.8403C24.9702 45.3822 24.864 45.9868 24.5488 46.499C24.3675 46.794 23.982 46.8843 23.6889 46.7039Z" fill="black"/>
<path d="M30.414 48.6779C30.12 48.497 30.0283 48.112 30.2092 47.818C30.496 47.3519 30.4214 46.8664 29.8739 46.5322C28.7741 45.8609 28.8236 44.5902 29.0033 44.012C29.1058 43.6823 29.4561 43.4986 29.7858 43.6006C30.114 43.7027 30.2979 44.0503 30.1984 44.3787C30.1752 44.4592 29.9962 45.1421 30.5253 45.4651C31.6861 46.1737 31.9091 47.4407 31.2739 48.473C31.0925 48.768 30.7072 48.8583 30.414 48.6779Z" fill="black"/>
<path d="M28.0152 53.6337C27.5316 53.6337 27.2258 53.0996 27.4834 52.681C27.7701 52.2149 27.6955 51.7296 27.1481 51.3954C26.0483 50.724 26.0977 49.4533 26.2774 48.875C26.38 48.5454 26.7303 48.3614 27.06 48.4638C27.3881 48.5659 27.5721 48.9135 27.4726 49.2418C27.4492 49.3227 27.2705 50.0054 27.7995 50.3283C28.9603 51.0368 29.1832 52.3039 28.5481 53.3361C28.4302 53.528 28.2251 53.6337 28.0152 53.6337Z" fill="black"/>
<path d="M51.3367 46.8756C51.0216 46.3633 50.9154 45.7587 51.0455 45.2168C51.1372 44.835 51.392 44.291 52.0853 43.8677C52.616 43.5438 52.4345 42.8578 52.412 42.7806C52.3095 42.4509 52.4945 42.1032 52.8241 42.0007C53.1537 41.8985 53.5049 42.0849 53.6074 42.4146C53.7872 42.9927 53.8366 44.2635 52.7368 44.9348C52.1909 45.2682 52.1139 45.7531 52.4016 46.2206C52.5824 46.5147 52.4907 46.8996 52.1967 47.0805C51.9015 47.2623 51.5168 47.1683 51.3367 46.8756Z" fill="black"/>
<path d="M45.1476 48.0087C44.8324 47.4964 44.7262 46.8919 44.8563 46.35C44.948 45.9682 45.2028 45.4242 45.8962 45.0009C46.0401 44.913 46.2349 44.7514 46.2638 44.3643C46.2815 44.1261 46.2251 43.9209 46.2245 43.919C46.1219 43.5893 46.306 43.239 46.6357 43.1365C46.9654 43.0339 47.3157 43.218 47.4182 43.5477C47.598 44.1258 47.6475 45.3966 46.5476 46.068C46.0016 46.4012 45.9247 46.8863 46.2123 47.3537C46.3932 47.6477 46.3016 48.0327 46.0076 48.2136C45.7117 48.3957 45.3273 48.3008 45.1476 48.0087Z" fill="black"/>
<path d="M47.8703 54.0102C47.6603 54.0102 47.4553 53.9045 47.3372 53.7126C47.0221 53.2003 46.9159 52.5957 47.046 52.0538C47.1377 51.672 47.3925 51.128 48.0859 50.7048C48.2298 50.6169 48.4245 50.4553 48.4535 50.0682C48.4712 49.83 48.4148 49.6247 48.4142 49.6229C48.3116 49.2932 48.4957 48.9429 48.8254 48.8403C49.155 48.7378 49.5054 48.9219 49.6079 49.2516C49.7877 49.8297 49.8372 51.1005 48.7372 51.7719C48.4746 51.9322 48.3145 52.1252 48.2616 52.3457C48.2086 52.5669 48.2598 52.8263 48.402 53.0575C48.6596 53.4762 48.3537 54.0102 47.8703 54.0102Z" fill="black"/>
<path d="M36.3022 35.8182C36.0803 35.5537 36.1148 35.1595 36.3792 34.9376C36.7985 34.5856 36.8814 34.1016 36.4675 33.6121C35.6356 32.6283 36.0838 31.4379 36.437 30.9459C36.6383 30.6654 37.0287 30.6013 37.3093 30.8026C37.5885 31.003 37.6533 31.391 37.4553 31.6712C37.4076 31.7405 37.0222 32.332 37.4221 32.8049C37.9463 33.4249 38.0165 34.0212 37.9831 34.4123C37.9356 34.9678 37.6439 35.5083 37.1828 35.8952C36.9173 36.1181 36.5232 36.0815 36.3022 35.8182Z" fill="black"/>
</g>
<defs>
<clipPath id="clip0">
<rect width="40" height="40" fill="white" transform="translate(18 18)"/>
</clipPath>
</defs>
</svg>
